<svg xmlns="http://www.w3.org/2000/svg" width="384" height="256"><g transform="translate(4 2994.2)"><path d="M-4-2994.2h384v256H-4z"/><path fill="red" d="M-4-2994.2v256l384-256z"/><path fill="#fff" d="M188-2948.09l-46.6 93.19a48 48 0 0 0 8.8 18.19l37.8-75.6 44 88 14.32-7.15L188-2948.09z" color="#000" font-family="sans-serif" font-weight="400" overflow="visible" style="line-height:normal;font-variant-ligatures:normal;font-variant-position:normal;font-variant-caps:normal;font-variant-numeric:normal;font-variant-alternates:normal;font-feature-settings:normal;text-indent:0;text-align:start;text-decoration-line:none;text-decoration-style:solid;text-decoration-color:#000;text-transform:none;text-orientation:mixed;shape-padding:0;isolation:auto;mix-blend-mode:normal" white-space="normal"/><path fill="none" stroke="#fff" stroke-width="16" d="M156-2866.2h64"/><path fill="#fff" d="M131.43-2900.14a16 16 0 0 0 0-22.63 16 16 0 0 0 0 22.63zm0 0a16 16 0 0 0 22.63 0 16 16 0 0 0-22.63 0z"/><circle cx="140" cy="-2850.2" r="16" fill="#fff" transform="translate(-4 -2994.2)"/><path fill="#fff" d="M177.72-2945.43a79.5 79.5 0 0 0-46.29 22.66 16 8 45 0 0 .94 10.86 71.53 71.53 0 0 1 40.96-24.73zM202.43-2944.9l-2.54 2.7 12.94 25.88A56 56 0 0 1 244-2866.2a56 56 0 0 1-56 56v6.17h2.82l4.15 8.6 7.46 7.93 2.36-.47 3.85-10.17.54-9.55 5.22-2.16 7.13 6.37 9.92 4.47 2-1.34-.33-10.87-3.16-9.02 4-4 9.02 3.16 10.87.33 1.34-2-4.47-9.92-6.37-7.13 2.16-5.22 9.55-.54 10.17-3.85.47-2.36-7.92-7.46-8.61-4.15v-5.64l8.6-4.15 7.93-7.46-.47-2.36-10.17-3.85-9.55-.54-2.16-5.22 6.37-7.13 4.47-9.92-1.34-2-10.87.33-9.02 3.16-4-4 3.16-9.02.33-10.87-2-1.34-9.92 4.47-7.13 6.37-5.22-2.16-.54-9.55-3.85-10.17zM163.23-2916.45a56.2 56.2 0 0 0-19.33 15.75 16 8 45 0 0 10.16.56c.63-.63 1.28-1.24 1.94-1.83z" color="#000" font-family="sans-serif" font-weight="400" overflow="visible" style="line-height:normal;font-variant-ligatures:normal;font-variant-position:normal;font-variant-caps:normal;font-variant-numeric:normal;font-variant-alternates:normal;font-feature-settings:normal;text-indent:0;text-align:start;text-decoration-line:none;text-decoration-style:solid;text-decoration-color:#000;text-transform:none;text-orientation:mixed;shape-padding:0;isolation:auto;mix-blend-mode:normal" white-space="normal"/><path fill="#fff" d="M125.9-2888.45a16 16 0 0 0-4.42-22.2 16 16 0 0 0 4.42 22.2zm0 0a16 16 0 0 0 22.19-4.42 16 16 0 0 0-22.2 4.42z"/><path fill="#fff" d="M122.75-2875.91a16 16 0 0 0-8.66-20.9 16 16 0 0 0 8.66 20.9zm0 0a16 16 0 0 0 20.9-8.66 16 16 0 0 0-20.9 8.66z"/><path fill="#fff" d="M122.1-2863a16 16 0 0 0-12.56-18.8 16 16 0 0 0 12.57 18.8zm0 0a16 16 0 0 0 18.82-12.56 16 16 0 0 0-18.81 12.57z"/><path fill="#fff" d="M124-2850.2a16 16 0 0 0-16-16 16 16 0 0 0 16 16zm0 0a16 16 0 0 0 16-16 16 16 0 0 0-16 16z"/><path fill="#fff" d="M128.35-2838.02a16 16 0 0 0-18.81-12.57 16 16 0 0 0 18.81 12.57zm0 0a16 16 0 0 0 12.57-18.82 16 16 0 0 0-12.57 18.82z"/><path fill="#fff" d="M135-2826.93a16 16 0 0 0-20.91-8.66 16 16 0 0 0 20.9 8.66zm0 0a16 16 0 0 0 8.65-20.9 16 16 0 0 0-8.66 20.9z"/><path fill="#fff" d="M143.68-2817.34a16 16 0 0 0-22.2-4.41 16 16 0 0 0 22.2 4.41zm0 0a16 16 0 0 0 4.41-22.2 16 16 0 0 0-4.41 22.2z"/><path fill="#fff" d="M154.06-2809.63a16 16 0 0 0-22.63 0 16 16 0 0 0 22.63 0zm0 0a16 16 0 0 0 0-22.63 16 16 0 0 0 0 22.63z"/><path fill="#fff" d="M165.75-2804.1a16 16 0 0 0-22.2 4.42 16 16 0 0 0 22.2-4.42zm0 0a16 16 0 0 0-4.42-22.19 16 16 0 0 0 4.42 22.2z"/><path fill="#fff" d="M178.29-2800.95a16 16 0 0 0-20.9 8.66 16 16 0 0 0 20.9-8.66zm0 0a16 16 0 0 0-8.66-20.9 16 16 0 0 0 8.66 20.9z"/><path fill="#fff" d="M191.2-2800.3a16 16 0 0 0-18.8 12.56 16 16 0 0 0 18.8-12.57zm0 0a16 16 0 0 0-12.56-18.82 16 16 0 0 0 12.57 18.81z"/></g></svg>